<svg enable-background="new 0 0 64 64" viewBox="0 0 64 64" xmlns="http://www.w3.org/2000/svg"><circle cx="31.8" cy="32" fill="#4f5d73" r="32"/><g fill="#231f20" opacity=".2"><circle cx="44" cy="39" r="2"/><circle cx="44" cy="51" r="2"/><path d="m26 22h-4v-4c0-1.1-.9-2-2-2s-2 .9-2 2v4h-4c-1.1 0-2 .9-2 2s.9 2 2 2h4v4c0 1.1.9 2 2 2s2-.9 2-2v-4h4c1.1 0 2-.9 2-2s-.9-2-2-2z"/><path d="m38 26h12c1.1 0 2-.9 2-2s-.9-2-2-2h-12c-1.1 0-2 .9-2 2s.9 2 2 2z"/><path d="m50 43h-12c-1.1 0-2 .9-2 2s.9 2 2 2h12c1.1 0 2-.9 2-2s-.9-2-2-2z"/><path d="m26.8 39.2c-.8-.8-2-.8-2.8 0l-4 4-4-4c-.8-.8-2-.8-2.8 0s-.8 2 0 2.8l4 4-4 4c-.8.8-.8 2 0 2.8s2 .8 2.8 0l4-4 4 4c.8.8 2 .8 2.8 0s.8-2 0-2.8l-4-4 4-4c.8-.8.8-2 0-2.8z"/></g><circle cx="44" cy="37" fill="#e0e0d1" r="2"/><circle cx="44" cy="49" fill="#e0e0d1" r="2"/><path d="m28 22c0 1.1-.9 2-2 2h-12c-1.1 0-2-.9-2-2 0-1.1.9-2 2-2h12c1.1 0 2 .9 2 2z" fill="#f5cf87"/><path d="m52 22c0 1.1-.9 2-2 2h-12c-1.1 0-2-.9-2-2 0-1.1.9-2 2-2h12c1.1 0 2 .9 2 2z" fill="#e0995e"/><path d="m20 30c-1.1 0-2-.9-2-2v-12c0-1.1.9-2 2-2 1.1 0 2 .9 2 2v12c0 1.1-.9 2-2 2z" fill="#f5cf87"/><path d="m52 43c0 1.1-.9 2-2 2h-12c-1.1 0-2-.9-2-2 0-1.1.9-2 2-2h12c1.1 0 2 .9 2 2z" fill="#e0e0d1"/><g fill="#76c2af"><path d="m26.8 50.8c-.8.8-2 .8-2.8 0l-10.8-10.8c-.8-.8-.8-2 0-2.8.8-.8 2-.8 2.8 0l10.8 10.8c.8.8.8 2 0 2.8z"/><path d="m13.2 50.8c-.8-.8-.8-2 0-2.8l10.8-10.8c.8-.8 2-.8 2.8 0 .8.8.8 2 0 2.8l-10.8 10.8c-.8.8-2 .8-2.8 0z"/></g></svg>