<svg viewBox="0 0 1024 1024" xmlns="http://www.w3.org/2000/svg"><path d="m880 112h-736c-17.7 0-32 14.3-32 32v736c0 17.7 14.3 32 32 32h736c17.7 0 32-14.3 32-32v-736c0-17.7-14.3-32-32-32zm-439.8 653h-50.8c-2.2 0-4.5-1.1-5.9-2.9l-35.5-43.5-35.5 43.5a7.38 7.38 0 0 1 -5.9 2.9h-50.8c-6.6 0-10.2-7.9-5.8-13.1l62.7-76.8-61.2-74.9c-4.3-5.2-.7-13.1 5.9-13.1h50.9c2.2 0 4.5 1.1 5.9 2.9l34 41.6 34-41.6c1.5-1.9 3.6-2.9 5.9-2.9h50.8c6.6 0 10.2 7.9 5.9 13.1l-61.3 74.8 62.7 76.8c4.2 5.3.6 13.2-6 13.2zm7.8-382c0 2.2-1.4 4-3.2 4h-68.8v68.7c0 1.9-1.8 3.3-4 3.3h-48c-2.2 0-4-1.4-4-3.2v-68.8h-68.8c-1.8 0-3.2-1.8-3.2-4v-48c0-2.2 1.4-4 3.2-4h68.8v-68.8c0-1.8 1.8-3.2 4-3.2h48c2.2 0 4 1.4 4 3.2v68.8h68.7c1.9 0 3.3 1.8 3.3 4zm328 369c0 2.2-1.4 4-3.2 4h-193.6c-1.8 0-3.2-1.8-3.2-4v-48c0-2.2 1.4-4 3.2-4h193.5c1.9 0 3.3 1.8 3.3 4zm0-104c0 2.2-1.4 4-3.2 4h-193.6c-1.8 0-3.2-1.8-3.2-4v-48c0-2.2 1.4-4 3.2-4h193.5c1.9 0 3.3 1.8 3.3 4zm0-265c0 2.2-1.4 4-3.2 4h-193.6c-1.8 0-3.2-1.8-3.2-4v-48c0-2.2 1.4-4 3.2-4h193.5c1.9 0 3.3 1.8 3.3 4z"/></svg>